<?xml version="1.0" standalone="no"?>
<!DOCTYPE svg PUBLIC "-//W3C//DTD SVG 1.1//EN" "http://www.w3.org/Graphics/SVG/1.1/DTD/svg11.dtd" >
<svg xmlns="http://www.w3.org/2000/svg">
<metadata>
<json>
<![CDATA[
{
	"fontFamily": "wikasatrian",
	"majorVersion": 2,
	"minorVersion": 0,
	"fontURL": "",
	"version": "Version 2.0",
	"fontId": "wikasatrian",
	"psName": "wikasatrian",
	"subFamily": "Regular",
	"fullName": "wikasatrian",
	"description": "Font generated by IcoMoon."
}
]]>
</json>
</metadata>
<defs>
<font id="wikasatrian" horiz-adv-x="1024">
<font-face units-per-em="1024" ascent="960" descent="-64" />
<missing-glyph horiz-adv-x="1024" />
<glyph unicode="&#x20;" horiz-adv-x="512" d="" />
<glyph unicode="&#xe900;" glyph-name="building" data-tags="building" d="M486.627 678.216l-201.837-201.837-18.102 18.102 201.837 201.837zM653.911 691.904l-165.633-165.633-18.102 18.102 165.633 165.633zM256 243.2h512v-25.6h-512zM640 704h128v-25.6h-128zM256 243.2v256h25.6v-256zM640 320v128h25.6v-128zM460.8 550.4v128h25.6v-128zM742.4 243.2v460.8h25.6v-460.8z" />
<glyph unicode="&#xe901;" glyph-name="calendar" data-tags="calendar" d="M204.8 729.6h614.4v-25.6h-614.4zM358.4 806.4v-153.6h-25.6v153.6zM230.4 729.6v-486.4h-25.6v486.4zM819.2 729.6v-486.4h-25.6v486.4zM665.6 806.4v-153.6h-25.6v153.6zM563.2 499.2h-102.4v25.6h102.4zM563.2 371.2h-102.4v25.6h102.4zM640 524.8h102.4v-25.6h-102.4zM640 396.8h102.4v-25.6h-102.4zM384 499.2h-102.4v25.6h102.4zM384 371.2h-102.4v25.6h102.4zM204.8 268.8h614.4v-25.6h-614.4z" />
<glyph unicode="&#xe902;" glyph-name="caret-down" data-tags="caret-down" d="M298.667 533.333l213.333-213.333 213.333 213.333z" />
<glyph unicode="&#xe903;" glyph-name="check" data-tags="check" d="M269.625 482.407l217.223-217.223-18.102-18.102-217.223 217.223zM831.288 609.112l-362.039-362.039-18.102 18.102 362.039 362.039z" />
<glyph unicode="&#xe904;" glyph-name="download" data-tags="download" d="M631.040 405.333h-76.373v384c0 23.564-19.103 42.667-42.667 42.667s-42.667-19.103-42.667-42.667v0-384h-76.373c-11.652-0.169-21.034-9.655-21.034-21.331 0-5.817 2.328-11.090 6.104-14.939l119.037-119.037c3.867-3.898 9.225-6.31 15.147-6.31s11.28 2.413 15.145 6.309l119.041 119.041c3.771 3.845 6.099 9.117 6.099 14.934 0 11.782-9.551 21.333-21.333 21.333-0.044 0-0.088 0-0.132 0h0.007zM170.667 106.667c0-23.564 19.103-42.667 42.667-42.667v0h597.333c23.564 0 42.667 19.103 42.667 42.667s-19.103 42.667-42.667 42.667v0h-597.333c-23.564 0-42.667-19.103-42.667-42.667v0z" />
<glyph unicode="&#xe905;" glyph-name="envelope" data-tags="envelope" d="M256 627.2h512v-25.6h-512zM677.693 510.881l-165.633-165.633-18.102 18.102 165.633 165.633zM364.589 528.993l162.917-162.917-18.102-18.102-162.917 162.917zM256 243.2h512v-25.6h-512zM256 243.2v384h25.6v-384zM742.4 243.2v384h25.6v-384z" />
<glyph unicode="&#xe906;" glyph-name="eye-slash" data-tags="eye-slash" d="M512.051 192c-56.5 0.947-109.555 14.771-156.649 38.652l2.051-0.943 19.61 19.61c39.467-19.289 85.776-30.904 134.714-31.715l0.275-0.004c105.856 0 201.139 62.643 262.502 115.2 40.085 34.505 75.704 72.105 107.233 113.020l1.311 1.771v0.358c-0.072 0.143-0.14 0.26-0.214 0.373l0.009-0.015-0.307 0.461c-32.911 42.429-68.422 79.888-107.288 113.58l-0.974 0.826c-15.59 13.338-31.411 25.6-47.002 36.659l19.251 19.251c17.92-12.646 36.403-27.11 54.81-43.008 44.208-38.46 83.572-80.308 118.466-125.767l1.496-2.029 0.154-0.154-0.154-0.256c-36.335-47.524-75.704-89.378-118.924-126.913l-1.038-0.882c-37.755-33.584-80.5-62.888-126.674-86.428l-3.425-1.585c-46.264-24.278-100.911-38.967-158.885-40.059l-0.347-0.005zM267.213 284.288c-14.797 10.803-29.85 22.861-44.698 35.712-44.176 38.375-83.477 80.177-118.268 125.616l-1.489 2.025v0.563c36.322 47.515 75.656 89.366 118.829 126.919l1.030 0.877c37.79 33.453 80.523 62.73 126.633 86.349l3.466 1.612c46.287 24.327 100.982 39.015 159.011 40.034l0.324 0.004c51.879-0.767 100.814-12.575 144.815-33.169l-2.171 0.913-19.84-19.891c-36.166 16.163-78.322 25.82-122.669 26.391l-0.211 0.002c-105.856 0-201.139-62.643-262.502-115.2-39.949-34.562-75.524-72.118-107.119-112.912l-1.323-1.776c-0.307-0.41-0.307-0.461-0.307-0.512 32.738-42.96 68.442-80.71 107.753-114.368l0.995-0.832c11.597-9.958 24.013-19.84 36.813-29.338l-19.149-19.098zM511.949 320.154c-0.070 0-0.153 0-0.235 0-19.037 0-37.098 4.178-53.315 11.668l0.789-0.327 19.712 19.712c9.844-3.465 21.195-5.468 33.013-5.468 56.554 0 102.4 45.846 102.4 102.4 0 11.818-2.002 23.169-5.686 33.732l0.218-0.718 19.712 19.712c7.173-15.485 11.357-33.609 11.357-52.71 0-70.68-57.287-127.98-127.963-128h-0.002zM390.451 407.603c-4.155 11.953-6.554 25.73-6.554 40.067 0 0.116 0 0.232 0 0.348v-0.018c0.065 70.643 57.348 127.886 128 127.886 14.45 0 28.341-2.395 41.298-6.808l-0.901 0.267-20.838-20.813c-5.819 1.172-12.508 1.843-19.354 1.843-56.576 0-102.451-45.812-102.553-102.364v-0.010c0-0.076 0-0.165 0-0.255 0-6.83 0.69-13.5 2.004-19.942l-0.109 0.639-20.941-20.838zM814.939 737.057l-579.262-579.262-18.102 18.102 579.262 579.262z" />
<glyph unicode="&#xe907;" glyph-name="eye" data-tags="eye" d="M512.051 191.898h-0.154c-43.255 0.419-84.425 8.839-122.265 23.846l2.303-0.806c-13.056 4.89-26.112 10.496-39.245 16.896-5.453 2.688-10.957 5.555-16.41 8.448-40.619 22.325-75.682 46.785-107.874 74.49l0.814-0.685c-2.253 1.894-4.506 3.789-6.758 5.76-14.208 12.262-27.443 24.602-39.501 36.506-28.437 27.909-54.78 57.686-78.933 89.229l-1.477 2.009-0.154 0.307 0.154 0.41c36.353 47.456 75.649 89.285 118.738 126.874l1.019 0.87c37.854 33.351 80.61 62.626 126.693 86.346l3.509 1.641c46.32 24.203 101.003 38.858 159.001 39.982l0.359 0.005h0.307c43.238-0.422 84.389-8.841 122.212-23.845l-2.302 0.805c13.056-4.89 26.138-10.496 39.245-16.896 5.504-2.688 10.957-5.504 16.41-8.448 40.602-22.291 75.65-46.735 107.817-74.434l-0.809 0.681c2.304-1.894 4.557-3.84 6.81-5.811 13.901-11.955 26.803-24.013 38.656-35.661 28.787-28.173 55.41-58.253 79.779-90.148l1.476-2.012 0.154-0.41-0.154-0.307c-36.335-47.468-75.633-89.299-118.736-126.873l-1.020-0.871c-37.85-33.374-80.607-62.658-126.698-86.374l-3.504-1.638c-46.302-24.21-100.966-38.874-158.947-40.007l-0.362-0.006zM249.6 332.954c61.21-52.608 156.595-115.2 262.605-115.2s201.062 62.643 262.4 115.2c40.198 34.425 75.816 72.090 107.191 113.168l1.302 1.776c-32.658 42.998-68.334 80.753-107.653 114.371l-0.994 0.829c-61.21 52.608-156.595 115.2-262.554 115.2s-201.088-62.643-262.4-115.2c-40.21-34.434-75.844-72.098-107.243-113.171l-1.301-1.773c32.674-43.027 68.35-80.814 107.66-114.477l0.987-0.825zM508.749 320.154c-69.187 1.813-124.6 58.257-124.749 127.678v0.425c0.149 69.435 55.562 125.88 124.581 127.689l0.168 0.003h6.605c69.165-1.841 124.55-58.275 124.698-127.678v-0.424c-0.148-69.418-55.533-125.852-124.527-127.689l-0.17-0.004h-3.302c-1.101 0-2.202-0.102-3.302-0.102zM409.702 448.154c0.061-56.197 45.632-101.73 101.837-101.73 56.243 0 101.837 45.594 101.837 101.837s-45.594 101.837-101.837 101.837c-39.362 0-73.507-22.331-90.459-55.016l-0.267-0.567c-7.008-13.468-11.131-29.404-11.162-46.301v-0.010z" />
<glyph unicode="&#xe908;" glyph-name="menu" data-tags="menu" d="M512 618.667c47.128 0 85.333 38.205 85.333 85.333s-38.205 85.333-85.333 85.333c-47.128 0-85.333-38.205-85.333-85.333v0c0.145-47.070 38.264-85.188 85.319-85.333h0.014zM512 533.333c-47.128 0-85.333-38.205-85.333-85.333s38.205-85.333 85.333-85.333c47.128 0 85.333 38.205 85.333 85.333v0c-0.145 47.070-38.264 85.188-85.319 85.333h-0.014zM512 277.333c-47.128 0-85.333-38.205-85.333-85.333s38.205-85.333 85.333-85.333c47.128 0 85.333 38.205 85.333 85.333v0c-0.145 47.070-38.264 85.188-85.319 85.333h-0.014z" />
<glyph unicode="&#xe909;" glyph-name="phone" data-tags="phone" d="M307.2 729.6h409.6v-25.6h-409.6zM435.2 268.8h153.6v-25.6h-153.6zM307.2 166.4h409.6v-25.6h-409.6zM307.2 140.8v588.8h25.6v-588.8zM691.2 140.8v588.8h25.6v-588.8z" />
<glyph unicode="&#xe90a;" glyph-name="time" data-tags="time" d="M512.051 140.774c-169.574 0.218-306.982 137.626-307.2 307.179v0.021c0.233 169.568 137.632 306.967 307.177 307.2h0.023c169.58-0.204 306.996-137.62 307.2-307.18v-0.020c-0.189-169.586-137.615-307.011-307.182-307.2h-0.018zM512.051 729.574c-155.447-0.189-281.411-126.153-281.6-281.582v-0.018c0.131-155.471 126.129-281.469 281.588-281.6h0.012c155.459 0.16 281.44 126.141 281.6 281.585v0.015c-0.175 155.469-126.138 281.458-281.579 281.677h-0.021zM486.4 627.2h25.6v-204.8h-25.6zM640 422.4v-25.6h-153.6v25.6z" />
<glyph unicode="&#xe90b;" glyph-name="user" data-tags="user" d="M501.402 422.451c-84.796 0.087-153.513 68.804-153.6 153.592v0.008c0.146 84.772 68.828 153.455 153.586 153.6h0.014c84.784-0.116 153.483-68.816 153.6-153.589v-0.011c0-84.831-68.769-153.6-153.6-153.6v0zM501.402 704.051c-70.699-0.117-127.971-57.442-128-128.151v-0.003c0-70.692 57.308-128 128-128v0c70.692 0 128 57.308 128 128v0c-0.029 70.712-57.301 128.037-127.989 128.154h-0.011zM257.254 166.374h-26.854c13.922 48.073 38.835 89.266 71.929 122.258l0.007 0.007c50.626 50.98 120.754 82.536 198.253 82.536 0.304 0 0.607 0 0.911-0.001h-0.047c0.254 0.001 0.554 0.001 0.855 0.001 77.5 0 147.635-31.534 198.274-82.471l0.013-0.013c33.056-33.024 57.927-74.235 71.314-120.331l0.494-1.986h-26.726c-33.322 104.69-129.688 179.201-243.456 179.201-0.27 0-0.54 0-0.81-0.001h0.042c-0.204 0.001-0.446 0.001-0.687 0.001-113.802 0-210.203-74.503-243.089-177.394l-0.499-1.806z" />
<glyph unicode="&#xe90c;" glyph-name="arrow-left" data-tags="arrow-left" d="M620.8 790.833l-260.8-347.708 260.8-347.75 17.088 12.791-251.221 334.959 251.221 334.916z" />
<glyph unicode="&#xe90d;" glyph-name="arrow-left2" data-tags="arrow-left2" d="M514.133 790.833l-260.8-347.708 260.8-347.75 17.088 12.791-251.221 334.959 251.221 334.916zM748.8 790.833l-260.8-347.708 260.8-347.75 17.088 12.791-251.221 334.959 251.221 334.916z" />
<glyph unicode="&#xe90e;" glyph-name="arrow-right" data-tags="arrow-right" d="M403.221 790.833l-17.088-12.791 251.2-334.916-251.2-334.959 17.088-12.791 260.779 347.75z" />
<glyph unicode="&#xe90f;" glyph-name="arrow-right2" data-tags="arrow-right2" d="M509.888 790.833l-17.088-12.791 251.2-334.916-251.2-334.959 17.088-12.791 260.779 347.75zM275.221 790.833l-17.088-12.791 251.2-334.916-251.2-334.959 17.088-12.791 260.779 347.75z" />
<glyph unicode="&#xe910;" glyph-name="back" data-tags="back" d="M264.32 436.052l253.427 253.427 18.102-18.102-253.427-253.427zM291.936 442.958l253.427-253.427-18.102-18.102-253.427 253.427zM281.6 448h460.8v-25.6h-460.8z" />
<glyph unicode="&#xe911;" glyph-name="bars" data-tags="bars" d="M153.6 601.6h512v-25.6h-512zM256 320h512v-25.6h-512zM358.4 448h512v-25.6h-512z" />
<glyph unicode="&#xe912;" glyph-name="close" data-tags="close" d="M321.907 265.176l362.039 362.039 18.102-18.102-362.039-362.039zM376.248 612.202l289.631-289.631-18.102-18.102-289.631 289.631z" />
<glyph unicode="&#xe913;" glyph-name="fb" data-tags="fb" d="M459.051 145.408c-145.406 26.101-254.315 151.639-254.315 302.614 0 168.379 135.466 305.119 303.358 307.176l0.195 0.002h7.509c166.741-2.090 301.355-136.705 303.443-303.247l0.002-0.198v-7.467c-1.968-149.292-110.132-272.75-252.297-298.387l-1.869-0.279v217.6h69.845l14.848 84.779h-84.779v57.643c0 20.736 4.693 48.299 45.099 48.299h39.637v79.232c-19.534 2.978-42.53 4.96-65.883 5.493l-0.634 0.011h-3.115c-2.105 0.138-4.564 0.217-7.041 0.217-63.152 0-114.347-51.195-114.347-114.347 0-3.11 0.124-6.19 0.368-9.237l-0.026 0.402v-67.712h-74.112v-84.736h74.112v-217.6z" />
<glyph unicode="&#xe914;" glyph-name="ig" data-tags="ig" d="M512 200.533c-69.419 0-78.464 0.299-105.557 1.536-22.454 0.506-43.749 4.829-63.47 12.34l1.305-0.436c-17.738 6.796-32.855 16.853-45.291 29.547l-0.021 0.021c-12.699 12.473-22.743 27.604-29.236 44.497l-0.29 0.858c-7.070 18.39-11.392 39.654-11.9 61.861l-0.004 0.219c-1.237 27.093-1.536 36.139-1.536 105.557s0.299 78.165 1.536 105.557c0.477 22.435 4.802 43.718 12.338 63.414l-0.434-1.291c6.808 17.748 16.864 32.877 29.549 45.336l0.019 0.018c12.463 12.694 27.579 22.736 44.454 29.235l0.858 0.29c18.403 7.068 39.682 11.39 61.903 11.9l0.22 0.004c27.093 1.237 36.139 1.536 105.557 1.536s78.421-0.299 105.472-1.536c22.47-0.512 43.778-4.834 63.517-12.341l-1.309 0.437c17.735-6.784 32.852-16.827 45.293-29.506l0.019-0.020c12.712-12.473 22.769-27.603 29.277-44.497l0.291-0.858c7.049-18.403 11.368-39.679 11.9-61.893l0.004-0.23c1.195-26.624 1.536-34.645 1.536-105.557s-0.341-78.933-1.536-105.557c-0.538-22.445-4.858-43.72-12.342-63.438l0.438 1.315c-13.625-34.474-40.406-61.255-73.993-74.57l-0.887-0.31c-18.417-7.075-39.711-11.397-61.948-11.9l-0.217-0.004c-27.051-1.237-36.096-1.536-105.515-1.536zM489.003 666.496c-47.275 0-56.32-0.384-80.427-1.451-17.124-0.224-33.429-3.444-48.508-9.157l0.977 0.325c-11.545-4.334-21.379-10.862-29.422-19.138l-0.018-0.019c-8.309-8.053-14.839-17.889-18.978-28.897l-0.179-0.543c-5.383-14.102-8.602-30.406-8.831-47.432l-0.001-0.098c-1.195-26.88-1.451-34.987-1.451-103.424s0.256-76.544 1.451-103.467c0.205-17.121 3.426-33.428 9.156-48.5l-0.324 0.97c4.338-11.544 10.865-21.376 19.139-29.422l0.018-0.018c8.064-8.292 17.897-14.819 28.893-18.976l0.547-0.181c14.102-5.368 30.404-8.586 47.425-8.831l0.106-0.001c27.093-1.237 35.2-1.493 103.424-1.493s76.373 0.256 103.467 1.493c17.119 0.19 33.428 3.413 48.495 9.155l-0.964-0.323c22.374 8.803 39.752 26.181 48.355 47.98l0.2 0.574c5.394 14.102 8.614 30.408 8.831 47.438l0.001 0.093c1.237 26.965 1.493 35.072 1.493 103.424s-0.256 76.416-1.493 103.424c-0.205 17.121-3.426 33.428-9.156 48.5l0.324-0.97c-4.341 11.543-10.867 21.375-19.139 29.422l-0.018 0.018c-8.059 8.299-17.893 14.828-28.895 18.977l-0.545 0.18c-14.102 5.388-30.407 8.608-47.435 8.831l-0.096 0.001c-26.88 1.195-34.987 1.451-103.467 1.451h-22.912zM512 325.163c-72.601 0-131.456 58.855-131.456 131.456s58.855 131.456 131.456 131.456c72.601 0 131.456-58.855 131.456-131.456 0-0.030 0-0.060 0-0.090v0.005c-0.073-72.572-58.884-131.383-131.449-131.456h-0.007zM512 541.867c-47.128 0-85.333-38.205-85.333-85.333s38.205-85.333 85.333-85.333c47.128 0 85.333 38.205 85.333 85.333v0c0 47.128-38.205 85.333-85.333 85.333v0zM648.533 562.475c-16.966 0-30.72 13.754-30.72 30.72s13.754 30.72 30.72 30.72c16.966 0 30.72-13.754 30.72-30.72v0c-0.024-16.956-13.764-30.696-30.718-30.72h-0.002z" />
<glyph unicode="&#xe915;" glyph-name="location" data-tags="location" d="M843.418 472.269l-307.2 307.2c-6.155 6.167-14.664 9.982-24.064 9.982s-17.909-3.815-24.063-9.982l-307.201-307.201c-6.167-6.155-9.982-14.664-9.982-24.064s3.815-17.909 9.982-24.063l307.201-307.201c6.155-6.167 14.664-9.982 24.064-9.982s17.909 3.815 24.063 9.982l307.201 307.201c6.167 6.155 9.982 14.664 9.982 24.064s-3.815 17.909-9.982 24.063l-0.001 0.001zM580.147 362.701v85.299h-136.397v-102.4h-68.403v136.499c0.058 18.837 15.313 34.092 34.145 34.15h170.656v85.35l119.603-119.501z" />
<glyph unicode="&#xe916;" glyph-name="tw" data-tags="tw" d="M496.683 543.829l1.067-17.707-17.92 2.176c-67.259 8.627-126.186 39.059-170.649 83.864l-0.018 0.018-23.296 23.552-6.229-17.408c-3.931-10.548-6.206-22.735-6.206-35.453 0-27.721 10.808-52.918 28.441-71.606l-0.048 0.051c14.336-15.189 11.093-17.365-13.611-8.32-4.933 2.364-10.706 3.811-16.799 3.967l-0.054 0.001c1.164-17.835 5.763-34.34 13.139-49.225l-0.339 0.756c11.55-19.985 28.293-35.837 48.404-45.99l0.662-0.303 17.536-8.32-20.779-0.341c-20.053 0-20.779-0.341-18.603-7.936 12.897-28.381 36.854-49.831 66.22-59.098l0.767-0.209 22.187-7.595-19.328-11.563c-27.572-16.116-60.555-25.946-95.769-26.748l-0.231-0.004c-1.265 0.054-2.749 0.085-4.24 0.085-8.868 0-17.483-1.089-25.716-3.14l0.73 0.154c19.883-12.987 42.807-23.818 67.19-31.318l1.93-0.511c25.718-7.903 55.281-12.454 85.907-12.454 54.784 0 106.166 14.563 150.487 40.028l-1.471-0.779c52.642 33.953 93.741 81.749 118.675 138.276l0.792 2.012c12.765 31.848 21.45 68.727 24.29 107.231l0.073 1.227c0 16.64 1.067 18.816 21.333 38.699 8.979 8.505 17.199 17.59 24.683 27.273l0.405 0.546c3.584 6.869 3.243 6.869-15.061 0.725-30.421-10.837-34.731-9.387-19.712 6.869 10.569 10.659 18.875 23.579 24.129 37.968l0.233 0.731c0 1.067-5.376-0.725-11.477-3.968-8.821-4.464-19.274-8.64-30.116-11.92l-1.415-0.368-19.712-6.187-17.536 11.947c-8.778 6.081-18.821 11.436-29.47 15.575l-0.994 0.34c-8.59 2.154-18.452 3.39-28.602 3.39-12.141 0-23.87-1.768-34.942-5.061l0.866 0.221c-41.063-14.358-69.99-52.767-69.99-97.932 0-2.187 0.068-4.359 0.202-6.513l-0.015 0.295z" />
<glyph unicode="&#xe917;" glyph-name="wa" data-tags="wa" d="M221.909 157.867l43.179 157.867c-25.553 43.608-40.644 96.031-40.644 151.979 0 168.154 136.316 304.469 304.469 304.469s304.469-136.316 304.469-304.469c0-168.154-136.316-304.469-304.469-304.469-0.006 0-0.012 0-0.018 0h0.001c-53.341 0.039-103.466 13.772-147.061 37.872l1.568-0.795zM390.741 255.317l9.259-5.504c36.926-22.273 81.515-35.45 129.182-35.45 139.783 0 253.099 113.316 253.099 253.099s-113.316 253.099-253.099 253.099c-139.783 0-253.099-113.316-253.099-253.099 0-49.783 14.373-96.209 39.195-135.354l-0.612 1.034 6.016-9.557-25.6-93.397 95.744 25.131zM608 321.365c-0.351-0.005-0.764-0.007-1.179-0.007-10.087 0-19.81 1.563-28.938 4.459l0.677-0.185c-17.81 5.535-32.192 10.98-46.188 17.14l2.796-1.098c-52.85 26.467-96.238 64.919-127.806 111.968l-0.748 1.184-1.237 1.92c-17.328 21.573-28.675 48.621-31.154 78.191l-0.036 0.529c-0.015 0.593-0.024 1.291-0.024 1.991 0 23.448 9.626 44.647 25.141 59.863l0.014 0.013 1.493 1.621c4.981 5.699 12.204 9.332 20.278 9.514l0.032 0.001c4.907 0 10.027 0 14.592-0.256h2.389c4.693 0 9.685-1.024 14.72-13.056l8.107-19.669c6.528-15.957 13.952-34.133 15.275-36.608 1.277-2.063 2.034-4.564 2.034-7.242 0-2.208-0.515-4.297-1.431-6.151l0.036 0.081-1.024-2.133c-1.785-4.047-3.987-7.535-6.622-10.644l0.052 0.063-3.925-4.693c-2.56-3.115-5.205-6.357-7.467-8.533-3.669-3.669-7.808-7.808-3.328-15.531 11.874-20.387 25.923-37.886 42.188-53.036l0.137-0.126c15.988-14.424 34.571-26.371 54.899-35.010l1.293-0.488c2.091-0.896 3.755-1.621 4.992-2.261 2.382-1.379 5.21-2.26 8.228-2.43l0.049-0.002c3.354 0.092 6.305 1.737 8.172 4.239l0.020 0.028c3.499 4.011 18.773 21.888 24.064 29.867 1.638 3.444 4.995 5.831 8.932 6.057l0.028 0.001c2.989-0.212 5.76-0.914 8.312-2.026l-0.162 0.063c6.869-2.517 43.264-20.395 51.968-24.747l4.267-2.048c4.136-1.412 7.641-3.762 10.392-6.805l0.019-0.021c0.606-3.296 0.953-7.089 0.953-10.963 0-9.118-1.921-17.787-5.38-25.625l0.16 0.407c-11.215-18.378-29.346-31.594-50.691-36.092l-0.509-0.090c-5.638-0.957-12.162-1.53-18.811-1.578h-0.047z" />
<glyph unicode="&#xe918;" glyph-name="ws" data-tags="ws" horiz-adv-x="1365" d="M167.509 545.963c45.385 0 82.176 36.791 82.176 82.176s-36.791 82.176-82.176 82.176c-45.385 0-82.176-36.791-82.176-82.176v0c0-45.385 36.791-82.176 82.176-82.176v0zM685.255 710.315c45.385 0 82.176 36.791 82.176 82.176s-36.791 82.176-82.176 82.176c-45.385 0-82.176-36.791-82.176-82.176v0c0-45.385 36.791-82.176 82.176-82.176v0zM1202.944 545.963c45.385 0 82.176 36.791 82.176 82.176s-36.791 82.176-82.176 82.176c-45.385 0-82.176-36.791-82.176-82.176v0c0-45.385 36.791-82.176 82.176-82.176v0zM1285.12 476.359v22.3c-5.547 0-27.705 2.19-37.689 2.19-62.066 0-182.329 16.498-227.812-112.1l-94.692-223.431-139.008 421.689c-5.712 16.225-12.814 30.264-21.455 43.187l0.435-0.691-0.569 0.512c-20.098 20.54-48.099 33.276-79.075 33.28h-0.001c-1.969 0.141-4.266 0.221-6.581 0.221-28.273 0-53.752-11.967-71.646-31.113l-0.052-0.056 0.171-0.256c-8.917-12.947-16.543-27.812-22.144-43.633l-0.413-1.337-144.555-394.61-89.173 196.267c-45.511 128.597-165.717 112.1-227.812 112.1-9.984 0-32.142-2.19-37.689-2.19v-22.187c66.503-5.547 82.176-39.196 121.941-116.395l90.624-204.117 39.282-76.117c6.188-15.369 13.769-28.638 22.875-40.689l-0.319 0.44 0.626-0.427c22.43-19.579 51.968-31.518 84.296-31.518 0.255 0 0.509 0.001 0.764 0.002h-0.039c3.171-0.441 6.834-0.693 10.556-0.693 25.333 0 47.941 11.669 62.741 29.926l0.118 0.151-0.228 0.228c9.605 12.285 17.777 26.364 23.877 41.501l0.415 1.166 142.364 376.036 139.378-378.908h0.939c6.012-14.346 13.186-26.718 21.708-38.015l-0.318 0.44 0.597-0.427c22.452-19.58 52.012-31.518 84.36-31.518 0.252 0 0.504 0.001 0.756 0.002h-0.039c2.458-0.192 5.323-0.302 8.213-0.302 29.346 0 56.057 11.285 76.029 29.753l-0.075-0.068-0.228 0.228c9.606 12.283 17.77 26.363 23.851 41.505l0.412 1.162 32.427 77.881 89.97 202.354c39.708 78.535 55.381 110.763 121.884 116.281z" />
<glyph unicode="&#xe919;" glyph-name="yt" data-tags="yt" d="M511.957 236.8c-6.466-0.084-14.102-0.132-21.75-0.132-76.941 0-152.751 4.838-227.144 14.227l8.851-0.911c-26.758 7.756-47.276 28.741-54.236 55.221l-0.121 0.544c-8.152 44.149-12.815 94.95-12.815 146.84 0 1.761 0.005 3.521 0.016 5.28l-0.001-0.27c-0.009 1.488-0.015 3.249-0.015 5.010 0 51.89 4.662 102.69 13.591 152.006l-0.776-5.166c7.081 27.025 27.599 48.009 53.806 55.628l0.552 0.137c65.542 8.477 141.352 13.316 218.293 13.316 7.647 0 15.284-0.048 22.909-0.143l-1.159 0.011c6.466 0.084 14.102 0.132 21.75 0.132 76.941 0 152.751-4.838 227.144-14.227l-8.851 0.911c26.758-7.756 47.276-28.741 54.236-55.221l0.121-0.544c8.152-44.149 12.815-94.95 12.815-146.84 0-1.761-0.005-3.521-0.016-5.28l0.001 0.27c0.009-1.488 0.015-3.249 0.015-5.010 0-51.89-4.662-102.69-13.591-152.006l0.776 5.166c-7.081-27.025-27.599-48.009-53.806-55.628l-0.552-0.137c-65.542-8.477-141.352-13.316-218.293-13.316-7.647 0-15.284 0.048-22.909 0.143l1.159-0.011zM454.357 544v-192l153.6 96z" />
</font>
</defs>
</svg>
